<?xml version="1.0" encoding="UTF-8"?>
<svg version="1.1" xmlns="http://www.w3.org/2000/svg" width="1062" height="1062">
<path d="M0 0 C15.3160984 -0.11678548 30.63217626 -0.20496463 45.94861984 -0.25906086 C53.06029898 -0.28484609 60.17170152 -0.32000206 67.28320312 -0.37719727 C74.1431669 -0.43234316 81.00284279 -0.46140244 87.86301422 -0.47438622 C90.48337586 -0.48364176 93.10372133 -0.50171516 95.72396088 -0.52865028 C99.38761205 -0.56482156 103.05006688 -0.56995005 106.71386719 -0.56762695 C108.34737625 -0.59459152 108.34737625 -0.59459152 110.0138855 -0.62210083 C117.36848153 -0.57146774 117.36848153 -0.57146774 120.64434814 2.39289856 C121.87736673 4.76415968 122.87622323 6.93792044 123.625 9.5 C123.86476563 10.27601563 124.10453125 11.05203125 124.3515625 11.8515625 C124.56554687 12.56054688 124.77953125 13.26953125 125 14 C126.17494041 17.56943089 126.17494041 17.56943089 128.5 20.375 C130 22 130 22 130.875 25.25 C131.85782208 28.5260736 132.44843354 29.82186991 134.4375 32.375 C137.0061723 35.70976755 138.06563723 38.94526505 139.25 42.94921875 C139.94769952 45.22196943 139.94769952 45.22196943 142.0625 47.4375 C144.93402135 51.23531856 145.31566002 55.36269622 146 60 C146.99 60.33 147.98 60.66 149 61 C150.24609375 63.765625 150.24609375 63.765625 151.4375 67.25 C153.0583095 71.97869836 154.84370583 75.15366581 158 79 C158.87109375 81.2109375 158.87109375 81.2109375 159.4375 83.375 C160.42365357 86.64946573 161.57111716 89.07595124 163.625 91.8125 C165.75831632 94.67563506 166.32466911 95.72825131 167 99 C168.03096942 102.01360291 169.16913748 104.24313513 171 106.875 C173.13543414 110.21161584 173.92842747 113.21377705 175 117 C175.7425 117.7425 175.7425 117.7425 176.5 118.5 C178.85966529 120.85966529 179.13879226 123.82429646 180 127 C181.74115318 131.06074373 181.74115318 131.06074373 184.51171875 134.41015625 C186.27395493 136.29265002 186.70082491 137.71406542 187.375 140.1875 C188.65089219 144.34596343 190.48286833 147.56324701 192.87890625 151.16796875 C194.38786091 153.63382148 195.08777965 156.26333894 196 159 C196.82772201 160.37049054 197.68423638 161.72383608 198.5625 163.0625 C200.08666842 165.39514037 200.96207776 166.80564851 201.5 169.5625 C202.03968219 172.19345068 202.75880036 173.16041645 204.375 175.25 C206.95384819 178.63427642 208.04559288 181.8892494 209.25 185.93359375 C210.2778562 188.76555172 212.07888626 190.70705779 214 193 C215.125 196 215.125 196 216 199 C217.44167022 203.11905777 219.50439357 206.42296411 222 210 C222.33773437 209.28972656 222.67546875 208.57945312 223.0234375 207.84765625 C223.46945312 206.92855469 223.91546875 206.00945312 224.375 205.0625 C224.81585937 204.14597656 225.25671875 203.22945312 225.7109375 202.28515625 C227 200 227 200 229 199 C229.76483298 197.08566722 229.76483298 197.08566722 230.375 194.8125 C231.32071509 191.78526125 232.14010655 189.79209996 233.9375 187.125 C235.88389265 184.17592023 236.87062392 181.75476544 238 178.4375 C239.44713693 174.20476748 241.13884818 171.45311427 244 168 C244.37366113 166.00714063 244.70740515 164.00636471 245 162 C246.4375 159.125 246.4375 159.125 248 157 C248.66 157 249.32 157 250 157 C250.15855469 156.28714844 250.31710937 155.57429687 250.48046875 154.83984375 C251.63092471 150.11725381 252.63969379 146.02753072 255.625 142.125 C257.98099134 139.02501139 258.43108754 137.697931 259 134 C259.95394836 131.97762948 260.94535351 129.9717304 262 128 C262.66 128 263.32 128 264 128 C264.433125 126.700625 264.433125 126.700625 264.875 125.375 C265.24625 124.26125 265.6175 123.1475 266 122 C266.268125 121.05125 266.53625 120.1025 266.8125 119.125 C268.11288077 115.70294535 269.83514711 112.94984196 271.87890625 109.9296875 C273.03995647 107.93122474 273.49121703 106.24043028 274 104 C274.96887581 101.98473831 275.9641321 99.98166034 277 98 C277.66 98 278.32 98 279 98 C279.16435547 97.07767578 279.16435547 97.07767578 279.33203125 96.13671875 C279.49058594 95.32847656 279.64914062 94.52023437 279.8125 93.6875 C280.03873047 92.48673828 280.03873047 92.48673828 280.26953125 91.26171875 C281.0922649 88.7143242 282.09158485 87.81544108 284 86 C284.91860242 84.13857172 284.91860242 84.13857172 285.5625 82.125 C285.81 81.42246094 286.0575 80.71992188 286.3125 79.99609375 C286.6528125 79.00802734 286.6528125 79.00802734 287 78 C288.15258738 74.94903342 289.17614572 72.73578143 291 70 C293.04362599 66.19215001 294.48571081 62.18460749 296 58.14453125 C297 56 297 56 299 55 C300.61795223 51.56185151 301.92137942 48.24973596 303.0625 44.625 C304 42 304 42 306 41 C306.7298193 38.88725007 306.7298193 38.88725007 307.3125 36.375 C308.50723626 32.10894678 310.00592915 29.35518783 312.73828125 25.93359375 C314.87321142 22.66179673 315.86473126 18.97029757 317.0078125 15.2578125 C317.33523438 14.51273437 317.66265625 13.76765625 318 13 C319.485 12.505 319.485 12.505 321 12 C321.66 8.7 322.32 5.4 323 2 C323.66 2 324.32 2 325 2 C325.33 1.34 325.66 0.68 326 0 C349.76 0 373.52 0 398 0 C397 4 397 4 395 6.9375 C392.89461419 9.73679289 392.89461419 9.73679289 392.55078125 12.36328125 C391.91352793 15.41396202 390.74359888 17.55538826 389.1875 20.25 C387.23169607 23.71816784 385.43143958 27.14773589 383.875 30.8125 C382.6885378 33.59745939 381.53126752 35.69640254 379.8125 38.25 C377.87794798 40.79621846 377.87794798 40.79621846 377.5625 43.375 C376.82728455 46.80600542 375.09529518 49.12468462 373.1875 52.03515625 C371.85793392 54.06755751 371.85793392 54.06755751 371.0625 56.875 C369.71022014 60.85229369 367.58997343 64.10082411 365.33984375 67.6328125 C364.08181015 69.85546078 363.59994822 71.5529671 363 74 C362.08140544 75.77118232 361.11863062 77.51979742 360.125 79.25 C358.2096765 82.66009864 356.56329331 85.9194412 355.3125 89.625 C354.879375 90.73875 354.44625 91.8525 354 93 C352.515 93.495 352.515 93.495 351 94 C350.896875 95.216875 350.79375 96.43375 350.6875 97.6875 C350.22500324 101.41390245 349.30394352 103.95879456 347 107 C346.34 107.33 345.68 107.66 345 108 C344.38833807 109.82303662 344.38833807 109.82303662 344 111.9375 C343.39617423 114.90810715 343.21308826 115.78691174 341 118 C340.29289322 119.64991582 339.62056011 121.31562256 339 123 C338.34 123 337.68 123 337 123 C336.85304688 123.87011719 336.85304688 123.87011719 336.703125 124.7578125 C335.67803851 130.11300569 334.13715981 133.4787991 331 138 C330.30099409 139.67436299 329.63653423 141.36340469 329 143.0625 C327.85726852 146.07841485 327.00985555 147.98805388 324.9375 150.5 C322.92494099 153.09685033 322.39861326 154.74662118 321.5625 157.875 C320.40889852 162.17073148 318.79110815 164.95457717 316.0625 168.4140625 C314.47813358 170.77896238 314.36315154 173.21583817 314 176 C311.59701493 180.70149254 311.59701493 180.70149254 309 182 C308.53141006 183.67353549 308.06728416 185.34853435 307.6328125 187.03125 C306.57976225 190.30740633 304.75147913 193.04437897 303 196 C302.30341637 197.65438613 301.63903117 199.32254318 301 201 C299.6864818 204.00887309 298.34427079 207.00475586 297 210 C296.34 210 295.68 210 295 210 C293.74335022 212.90600261 293 214.79604584 293 218 C292.04985714 219.73646798 291.09359131 221.47045243 290.08203125 223.171875 C288.03767963 226.62586979 286.29482591 230.03128631 285.125 233.875 C283.8588199 237.39216694 282.09639489 240.17416254 280.0234375 243.265625 C278.83059786 244.95144135 278.83059786 244.95144135 279 247 C276.60126531 248.19936735 275.12504177 248.12532162 272.44630337 248.12584114 C271.48152079 248.12844889 270.51673821 248.13105664 269.5227198 248.13374341 C268.45532587 248.13151268 267.38793195 248.12928196 266.28819275 248.12698364 C264.59609715 248.12932363 264.59609715 248.12932363 262.86981779 248.13171089 C259.06415913 248.13572118 255.25853987 248.13253112 251.45288086 248.12939453 C248.73503028 248.13019811 246.01718141 248.13249211 243.29933167 248.13470459 C236.66844433 248.13916031 230.0375683 248.13818674 223.40668052 248.13529195 C218.02010278 248.13303733 212.63352822 248.13272565 207.24695015 248.13381577 C206.09879015 248.13404561 206.09879015 248.13404561 204.927435 248.13428011 C203.3726718 248.13459982 201.8179086 248.13492403 200.26314539 248.1352527 C185.67113169 248.13810686 171.07912425 248.13482136 156.48711158 248.12945233 C143.95323726 248.12498346 131.4193722 248.12576104 118.88549805 248.13037109 C104.34561163 248.13571644 89.80573071 248.13783312 75.26584345 248.13475883 C73.71697366 248.13444027 72.16810387 248.13412589 70.61923409 248.13381577 C69.47598847 248.13358435 69.47598847 248.13358435 68.30964698 248.13334826 C62.92598806 248.13248305 57.54233262 248.13394605 52.15867424 248.13629532 C45.60298257 248.13909303 39.04730289 248.13835563 32.49161261 248.13301457 C29.1436979 248.1303773 25.79581987 248.12990668 22.44790268 248.13266373 C18.82685597 248.135372 15.2058666 248.13199809 11.58482361 248.12698364 C10.51519896 248.12921436 9.44557431 248.13144509 8.34353679 248.13374341 C7.38136196 248.13113566 6.41918713 248.12852791 5.42785549 248.12584114 C4.59089687 248.12567879 3.75393824 248.12551644 2.89161724 248.12534916 C1 248 1 248 0 247 C-0.09808162 243.8271065 -0.12990152 240.67596099 -0.12025452 237.50267029 C-0.12110894 236.49317843 -0.12196337 235.48368657 -0.12284368 234.44360405 C-0.12450153 231.03326727 -0.11897215 227.6229788 -0.11352539 224.21264648 C-0.11324356 221.7790324 -0.11340117 219.34541823 -0.1139679 216.9118042 C-0.11419622 211.65815538 -0.11134484 206.40452184 -0.10573006 201.150877 C-0.0976172 193.55490709 -0.09500006 185.95894318 -0.09374207 178.36296941 C-0.09155121 166.04023467 -0.08489021 153.71750654 -0.07543945 141.39477539 C-0.06626621 129.42146844 -0.05918495 117.44816327 -0.05493164 105.47485352 C-0.05466892 104.73732833 -0.05440619 103.99980315 -0.05413551 103.23992871 C-0.05283051 99.54013376 -0.05156679 95.84033879 -0.05032361 92.14054382 C-0.03994994 61.42702441 -0.02225659 30.71351321 0 0 Z M66 42 C67 44 67 44 67 44 Z M66 45 C66 76.68 66 108.36 66 141 C82.17 141 98.34 141 115 141 C113.68 139.02 112.36 137.04 111 135 C110.7525 133.7315625 110.7525 133.7315625 110.5 132.4375 C110.17558487 129.85952157 110.17558487 129.85952157 108.1875 127.875 C106.04037458 125.05306374 105.18811338 123.0048565 104.0625 119.6875 C102.55140521 115.24380623 100.68645474 111.6467339 98.0859375 107.76171875 C96.58563714 105.32777824 95.90202557 102.7060767 95 100 C94.17227799 98.62950946 93.31576362 97.27616392 92.4375 95.9375 C90.91333158 93.60485963 90.03792224 92.19435149 89.5 89.4375 C88.86804716 86.35672989 87.19664506 84.54462058 85.32421875 82.08203125 C83.26957057 78.85156671 82.25695436 75.32707032 81.04296875 71.71484375 C79.7651521 68.38869179 78.0018036 65.65371752 76.02734375 62.70703125 C74.72091348 60.53627069 74.40265855 58.48306105 74 56 C73.05273046 54.30280873 72.05771739 52.63064764 71 51 C70.67 50.34 70.34 49.68 70 49 C69.34 49 68.68 49 68 49 C67.34 47.68 66.68 46.36 66 45 Z M277 99 C278 101 278 101 278 101 Z M66 176 C66 191.18 66 206.36 66 222 C94.71 222 123.42 222 153 222 C152.67121512 215.44107148 152.67121512 215.44107148 150.1875 212.75 C146.9281036 208.6524731 145.62408144 203.93271544 144 199 C143.34 199 142.68 199 142 199 C141.5978125 197.4840625 141.5978125 197.4840625 141.1875 195.9375 C139.40609672 189.77110404 137.02610738 184.9979264 133 180 C133 179.01 133 178.02 133 177 C130.20965739 175.6048287 127.92774028 175.88044838 124.80615234 175.88647461 C123.50495453 175.88655014 122.20375671 175.88662567 120.86312866 175.88670349 C119.43739789 175.89181053 118.0116675 175.89702653 116.5859375 175.90234375 C115.13148039 175.90420853 113.67702266 175.90563215 112.2225647 175.90663147 C108.39207224 175.91045195 104.56161763 175.92027824 100.73114014 175.93133545 C96.13646222 175.94335686 91.54177166 175.94795405 86.94708252 175.95378876 C79.96469535 175.96349023 72.98239123 175.98265005 66 176 Z " fill="#0048AC" transform="translate(294,382)"/>
<path d="M0 0 C23.43 0 46.86 0 71 0 C71 81.84 71 163.68 71 248 C49.88 248 28.76 248 7 248 C6.505 194.045 6.505 194.045 6 139 C2.23542173 143.59464772 2.23542173 143.59464772 0.375 148.625 C-0.49564604 151.62616812 -1.21929519 153.32894279 -3 156 C-3.66 156 -4.32 156 -5 156 C-5.10957031 156.58007812 -5.21914063 157.16015625 -5.33203125 157.7578125 C-6.49606129 163.49278976 -7.93684238 168.38137686 -11.625 173.0625 C-13.16826401 174.95824301 -13.16826401 174.95824301 -13.5 177.5 C-14.08486573 180.42432866 -15.20122303 181.64775319 -17 184 C-18.5089744 187.2593847 -19.83529779 190.41720757 -20.8125 193.875 C-22.23757464 197.62519643 -24.30574196 200.52450181 -26.66015625 203.75390625 C-28.12974878 206.21750889 -28.44719097 208.20572309 -29 211 C-30.33984375 213.4296875 -30.33984375 213.4296875 -31.9375 215.875 C-33.82221365 218.89143296 -35.0302796 221.10787106 -36 224.5625 C-37.18584355 228.63883722 -39.15774319 231.39948588 -41.66015625 234.7890625 C-43.1338792 236.92340687 -43.1338792 236.92340687 -43.43359375 239.3984375 C-44.22580611 243.03715082 -45.61682323 245.140606 -48 248 C-51.17645264 248.7215271 -51.17645264 248.7215271 -54.97167969 248.68115234 C-56.01131111 248.68246658 -56.01131111 248.68246658 -57.07194519 248.68380737 C-59.35641332 248.67963636 -61.63792198 248.63301796 -63.921875 248.5859375 C-65.50797929 248.57474337 -67.09410435 248.5662042 -68.68023682 248.56021118 C-72.84993013 248.53732918 -77.01836437 248.47841359 -81.18756104 248.4119873 C-85.44387784 248.35054987 -89.70039861 248.32319319 -93.95703125 248.29296875 C-102.30526457 248.22866777 -110.65247556 248.12629829 -119 248 C-118.71682074 246.39431334 -118.42312209 244.79047953 -118.125 243.1875 C-117.96257813 242.29417969 -117.80015625 241.40085937 -117.6328125 240.48046875 C-117 238 -117 238 -115 235 C-114.34 235 -113.68 235 -113 235 C-112.938125 233.824375 -112.87625 232.64875 -112.8125 231.4375 C-112.30537337 227.26289237 -110.82941538 224.963785 -108.265625 221.71484375 C-106.29001409 219.03801292 -105.21101419 216.08258158 -104 213 C-103.44184909 211.68564462 -102.87945236 210.37308289 -102.3125 209.0625 C-101.879375 208.051875 -101.44625 207.04125 -101 206 C-100.34 206 -99.68 206 -99 206 C-98.91363281 205.34773437 -98.82726562 204.69546875 -98.73828125 204.0234375 C-97.73555058 197.78626877 -96.14581714 194.85363958 -92 190 C-91.05147542 187.4478258 -90.33683788 184.90970222 -89.67578125 182.26953125 C-89 180 -89 180 -87 177 C-86.34 177 -85.68 177 -85 177 C-84.9175 175.989375 -84.835 174.97875 -84.75 173.9375 C-84.25201376 170.40179772 -82.93986495 167.8156365 -81.05078125 164.765625 C-78.85319659 161.07302922 -77.35621285 157.06863854 -76 153 C-75.34 152.34 -74.68 151.68 -74 151 C-72.40036349 148.10065883 -71.2160516 145.07589522 -70 142 C-67.37837838 135.75675676 -67.37837838 135.75675676 -66 133 C-65.34 133 -64.68 133 -64 133 C-63.979375 132.0925 -63.95875 131.185 -63.9375 130.25 C-63.24741646 125.17222114 -60.34833451 121.24384754 -57.71875 116.94921875 C-55.63661669 113.37646728 -54.30438401 109.91315202 -53 106 C-52.67 105.34 -52.34 104.68 -52 104 C-51.34 104 -50.68 104 -50 104 C-49.85304688 103.32195312 -49.70609375 102.64390625 -49.5546875 101.9453125 C-48.02679129 95.60542134 -45.86094585 90.67848182 -42.33984375 85.203125 C-40.85439908 82.94976926 -40.85439908 82.94976926 -40 79.9375 C-38.98731354 76.96273354 -37.7359827 75.05529102 -35.9375 72.5 C-34.03923854 69.76868854 -33.05239209 68.31435256 -32.5 65 C-31.82741624 60.96449743 -29.7836684 58.49432206 -27.375 55.24609375 C-25.85367774 53.05603116 -25.85367774 53.05603116 -25.5 50.41015625 C-24.9163015 47.59654707 -24.05340643 46.91233271 -22 45 C-21.08139758 43.13857172 -21.08139758 43.13857172 -20.4375 41.125 C-20.18871094 40.41988281 -19.93992187 39.71476562 -19.68359375 38.98828125 C-19.45800781 38.33214844 -19.23242188 37.67601562 -19 37 C-17.65542678 33.38645947 -16.0201838 30.28279867 -14 27 C-12.68320487 24.59878535 -11.82605153 22.44553924 -11 19.8125 C-10 17 -10 17 -8 16 C-7.21996465 13.60578744 -6.65765655 11.18723356 -6.07421875 8.73828125 C-5 6 -5 6 0 0 Z M6 134 C7 136 7 136 7 136 Z " fill="#1700AC" transform="translate(700,382)"/>
<path d="M0 0 C23.76 0 47.52 0 72 0 C71 4 71 4 69 6.9375 C66.89461419 9.73679289 66.89461419 9.73679289 66.55078125 12.36328125 C65.91352793 15.41396202 64.74359888 17.55538826 63.1875 20.25 C61.23169607 23.71816784 59.43143958 27.14773589 57.875 30.8125 C56.6885378 33.59745939 55.53126752 35.69640254 53.8125 38.25 C51.87794798 40.79621846 51.87794798 40.79621846 51.5625 43.375 C50.82728455 46.80600542 49.09529518 49.12468462 47.1875 52.03515625 C45.85793392 54.06755751 45.85793392 54.06755751 45.0625 56.875 C43.71022014 60.85229369 41.58997343 64.10082411 39.33984375 67.6328125 C38.08181015 69.85546078 37.59994822 71.5529671 37 74 C36.08140544 75.77118232 35.11863062 77.51979742 34.125 79.25 C32.2096765 82.66009864 30.56329331 85.9194412 29.3125 89.625 C28.879375 90.73875 28.44625 91.8525 28 93 C27.01 93.33 26.02 93.66 25 94 C24.8453125 95.8253125 24.8453125 95.8253125 24.6875 97.6875 C24.22500324 101.41390245 23.30394352 103.95879456 21 107 C20.01 107.495 20.01 107.495 19 108 C18.38833807 109.82303662 18.38833807 109.82303662 18 111.9375 C17.39617423 114.90810715 17.21308826 115.78691174 15 118 C14.29289322 119.64991582 13.62056011 121.31562256 13 123 C12.34 123 11.68 123 11 123 C10.90203125 123.58007812 10.8040625 124.16015625 10.703125 124.7578125 C9.67803851 130.11300569 8.13715981 133.4787991 5 138 C4.30099409 139.67436299 3.63653423 141.36340469 3 143.0625 C1.85726852 146.07841485 1.00985555 147.98805388 -1.0625 150.5 C-3.07505901 153.09685033 -3.60138674 154.74662118 -4.4375 157.875 C-5.59110148 162.17073148 -7.20889185 164.95457717 -9.9375 168.4140625 C-11.52186642 170.77896238 -11.63684846 173.21583817 -12 176 C-14.40298507 180.70149254 -14.40298507 180.70149254 -17 182 C-17.46858994 183.67353549 -17.93271584 185.34853435 -18.3671875 187.03125 C-19.42023775 190.30740633 -21.24852087 193.04437897 -23 196 C-23.69658363 197.65438613 -24.36096883 199.32254318 -25 201 C-26.3135182 204.00887309 -27.65572921 207.00475586 -29 210 C-29.66 210 -30.32 210 -31 210 C-32.25664978 212.90600261 -33 214.79604584 -33 218 C-33.95014286 219.73646798 -34.90640869 221.47045243 -35.91796875 223.171875 C-37.96232037 226.62586979 -39.70517409 230.03128631 -40.875 233.875 C-42.1411801 237.39216694 -43.90360511 240.17416254 -45.9765625 243.265625 C-47.16940214 244.95144135 -47.16940214 244.95144135 -47 247 C-50.38393008 248.69196504 -54.22477791 248.11986549 -57.9453125 248.09765625 C-58.8303244 248.0962413 -59.7153363 248.09482635 -60.62716675 248.09336853 C-63.45981191 248.0877614 -66.29237864 248.07520771 -69.125 248.0625 C-71.04296761 248.05748592 -72.96093646 248.05292285 -74.87890625 248.04882812 C-79.58596782 248.03778966 -84.2929706 248.02052025 -89 248 C-89.45528076 246.9378125 -89.91056152 245.875625 -90.37963867 244.78125 C-93.71130043 237.05614734 -97.10485956 229.54667418 -101.32226562 222.25390625 C-103.7617151 217.88140001 -104.95210815 213.85115416 -106 209 C-105.01 209 -104.02 209 -103 209 C-102.731875 208.2575 -102.46375 207.515 -102.1875 206.75 C-101 204 -101 204 -99.546875 202.1328125 C-97.89147322 199.8503646 -97.02207611 197.76898223 -96.0625 195.125 C-94.89896686 192.08565677 -93.84549219 189.77306665 -92 187.0625 C-90.09662915 184.14796339 -89.11650987 181.70852501 -88 178.4375 C-86.55286307 174.20476748 -84.86115182 171.45311427 -82 168 C-81.62633887 166.00714063 -81.29259485 164.00636471 -81 162 C-79.5625 159.125 -79.5625 159.125 -78 157 C-77.34 157 -76.68 157 -76 157 C-75.84144531 156.28714844 -75.68289063 155.57429687 -75.51953125 154.83984375 C-74.36907529 150.11725381 -73.36030621 146.02753072 -70.375 142.125 C-68.01900866 139.02501139 -67.56891246 137.697931 -67 134 C-66.04605164 131.97762948 -65.05464649 129.9717304 -64 128 C-63.34 128 -62.68 128 -62 128 C-61.71125 127.13375 -61.4225 126.2675 -61.125 125.375 C-60.75375 124.26125 -60.3825 123.1475 -60 122 C-59.731875 121.05125 -59.46375 120.1025 -59.1875 119.125 C-57.88711923 115.70294535 -56.16485289 112.94984196 -54.12109375 109.9296875 C-52.96004353 107.93122474 -52.50878297 106.24043028 -52 104 C-51.03112419 101.98473831 -50.0358679 99.98166034 -49 98 C-48.34 98 -47.68 98 -47 98 C-46.89042969 97.38511719 -46.78085937 96.77023437 -46.66796875 96.13671875 C-46.43013672 94.92435547 -46.43013672 94.92435547 -46.1875 93.6875 C-46.03667969 92.88699219 -45.88585937 92.08648437 -45.73046875 91.26171875 C-44.9077351 88.7143242 -43.90841515 87.81544108 -42 86 C-41.08139758 84.13857172 -41.08139758 84.13857172 -40.4375 82.125 C-40.19 81.42246094 -39.9425 80.71992188 -39.6875 79.99609375 C-39.460625 79.33738281 -39.23375 78.67867188 -39 78 C-37.84741262 74.94903342 -36.82385428 72.73578143 -35 70 C-32.95637401 66.19215001 -31.51428919 62.18460749 -30 58.14453125 C-29 56 -29 56 -27 55 C-25.38204777 51.56185151 -24.07862058 48.24973596 -22.9375 44.625 C-22 42 -22 42 -20 41 C-19.2701807 38.88725007 -19.2701807 38.88725007 -18.6875 36.375 C-17.49276374 32.10894678 -15.99407085 29.35518783 -13.26171875 25.93359375 C-11.12678858 22.66179673 -10.13526874 18.97029757 -8.9921875 15.2578125 C-8.50105469 14.14019531 -8.50105469 14.14019531 -8 13 C-7.01 12.67 -6.02 12.34 -5 12 C-4.34 8.7 -3.68 5.4 -3 2 C-2.34 2 -1.68 2 -1 2 C-0.67 1.34 -0.34 0.68 0 0 Z M-49 99 C-48 101 -48 101 -48 101 Z " fill="#1700AB" transform="translate(620,382)"/>
<path d="M0 0 C0.75491986 0.00496818 1.50983973 0.00993636 2.28763595 0.01505509 C3.08993317 0.01244781 3.89223039 0.00984052 4.71883965 0.00715423 C7.43608848 0.00080426 10.15311058 0.00884806 12.87035289 0.0167059 C14.82652256 0.01511925 16.78269168 0.0126571 18.73885927 0.00938949 C24.13678237 0.00294695 29.53463102 0.00906647 34.93254927 0.01715377 C40.74513266 0.02370869 46.55770742 0.01878714 52.37029186 0.01527157 C63.76575307 0.01021956 75.16118536 0.01588367 86.55664299 0.02512188 C99.14293867 0.03496039 111.72922744 0.03549084 124.31552633 0.03502207 C149.34279855 0.03411531 174.37005565 0.04407127 199.39732263 0.05945174 C221.6520424 0.07307791 243.90675143 0.07931299 266.16147533 0.07864133 C267.59051074 0.07860091 269.01954615 0.07856055 270.44858155 0.07852025 C271.15505624 0.0784999 271.86153092 0.07847954 272.58941392 0.07845858 C276.14541459 0.07835779 279.70141525 0.0782672 283.25741592 0.07818833 C283.9588993 0.07817162 284.66038268 0.0781549 285.38312313 0.07813768 C303.95786003 0.07777284 322.53259559 0.08230763 341.10733137 0.08851489 C343.08675201 0.08917602 343.08675201 0.08917602 345.10616095 0.08985051 C347.75693456 0.09074153 350.40770817 0.09164172 353.05848177 0.09255118 C362.310399 0.09557384 371.5623153 0.09663148 380.81423298 0.09708348 C392.08006138 0.09776402 403.34588123 0.10220638 414.611706 0.11141629 C420.36562889 0.11604882 426.1195408 0.11907445 431.87346569 0.11782208 C437.13173306 0.11673304 442.38997609 0.12020837 447.64823838 0.12747061 C449.55935382 0.12929508 451.47047175 0.12940353 453.3815873 0.12770332 C455.96162278 0.12566069 458.54157674 0.12966196 461.12160507 0.13530961 C462.25749661 0.13222663 462.25749661 0.13222663 463.41633546 0.12908137 C468.52754505 0.14978917 468.52754505 0.14978917 469.64169994 1.26394406 C469.7404381 3.26193978 469.77141793 5.26351564 469.76669994 7.26394406 C469.76927806 8.35706906 469.77185619 9.45019406 469.77451244 10.57644406 C469.64169994 13.26394406 469.64169994 13.26394406 468.64169994 14.26394406 C466.12604831 14.36369571 463.63780556 14.39756435 461.12160507 14.3897852 C460.32076129 14.39123864 459.51991751 14.39269208 458.69480574 14.39418957 C455.97652889 14.39787648 453.25830718 14.39435078 450.54003063 14.3909277 C448.58543729 14.39207846 446.63084417 14.39366568 444.6762515 14.39565495 C439.27802028 14.39985452 433.87980659 14.39775476 428.48157528 14.39466873 C422.67031981 14.39241737 416.85906747 14.39589292 411.04781261 14.39864865 C399.65255592 14.40310827 388.2573058 14.40212901 376.86204884 14.39923601 C367.60484151 14.39698262 358.34763603 14.39666917 349.0904285 14.39775982 C347.77562021 14.39791306 346.46081192 14.39806629 345.10616095 14.39822417 C343.10506748 14.39846373 341.10397402 14.39870331 339.10288055 14.39895106 C314.07391477 14.40201299 289.04495258 14.39923203 264.01598735 14.39385416 C241.76142153 14.38910879 219.50686142 14.38953238 197.25229564 14.39431515 C172.27180532 14.39966576 147.29131816 14.40179532 122.31082734 14.39870289 C119.64948061 14.39838432 116.98813388 14.39806995 114.32678714 14.39775982 C113.01717529 14.39760555 111.70756343 14.39745127 110.35826637 14.39729232 C101.10733088 14.3964271 91.85639741 14.39789018 82.60546222 14.40023938 C71.33854171 14.40303748 60.07162817 14.40229893 48.80470846 14.39695863 C43.05066771 14.39432167 37.2966386 14.39331646 31.54259792 14.39660779 C26.28300631 14.39957088 21.02343722 14.39797769 15.76384767 14.39263023 C13.85335686 14.3915061 11.94286417 14.39209714 10.03237454 14.39450602 C7.45076732 14.3975133 4.86923893 14.39446203 2.28763595 14.3897852 C1.15525616 14.39329695 1.15525616 14.39329695 0 14.39687964 C-5.12999935 14.37809442 -5.12999935 14.37809442 -7.35830006 13.26394406 C-7.41221999 11.47260428 -7.45105577 9.68080506 -7.48330006 7.88894406 C-7.50650319 6.89120968 -7.52970631 5.89347531 -7.55361256 4.86550656 C-7.17476076 -0.18079939 -4.39365154 0.03053105 0 0 Z " fill="#1300AA" transform="translate(301.3583000600338,361.73605594038963)"/>
<path d="M0 0 C45.3662621 0.07823345 90.73252205 0.15765244 136.09877014 0.2436676 C137.10511566 0.24557512 137.10511566 0.24557512 138.13179139 0.24752118 C152.71042647 0.27516229 167.28906111 0.30302527 181.86769533 0.33111694 C189.01653313 0.34489074 196.16537103 0.35861548 203.31420898 0.37231445 C204.02562335 0.37367854 204.73703771 0.37504262 205.47001008 0.37644804 C228.54987719 0.42067894 251.62974867 0.4616677 274.70962462 0.50098413 C298.41724663 0.54138697 322.12486045 0.58504275 345.8324688 0.63282111 C361.11681303 0.66361695 376.40115647 0.69152319 391.68551338 0.71517897 C401.69145659 0.73094553 411.69738853 0.7503469 421.70331924 0.77266841 C427.48557843 0.78545837 433.26782887 0.79658663 439.05009842 0.80341911 C444.33435721 0.8096983 449.61858593 0.82049834 454.90282828 0.8350333 C456.82342231 0.83949313 458.74402118 0.84223361 460.66462015 0.84316199 C463.25747678 0.84465623 465.85024463 0.8521782 468.44308376 0.8613348 C469.20412518 0.86031213 469.9651666 0.85928946 470.74926987 0.85823581 C475.8858542 0.8858542 475.8858542 0.8858542 477 2 C477.07244053 4.01964199 477.08377188 6.04167124 477.0625 8.0625 C477.05347656 9.16722656 477.04445313 10.27195312 477.03515625 11.41015625 C477.01775391 12.69212891 477.01775391 12.69212891 477 14 C431.63374418 14.01710977 386.26748802 14.03303149 340.90122986 14.04234314 C340.23033285 14.0424812 339.55943583 14.04261925 338.86820861 14.04276149 C324.289574 14.04575405 309.71093936 14.04852428 295.13230467 14.05106533 C287.98346678 14.05231272 280.8346289 14.05360927 273.68579102 14.05493164 C272.97437665 14.0550624 272.26296229 14.05519316 271.52998992 14.05532788 C248.4501171 14.05959305 225.37024672 14.06710721 202.29037538 14.07629722 C178.58276082 14.0857201 154.87514761 14.09188318 131.1675312 14.09391499 C115.88317993 14.09523189 100.59883555 14.09944446 85.31448662 14.10791647 C75.30855054 14.11318186 65.30261812 14.11480477 55.29668076 14.11350138 C49.51441622 14.11285767 43.73216396 14.11387915 37.94990158 14.11920547 C32.66565171 14.12403782 27.38142249 14.12433975 22.09717172 14.12089889 C20.17657401 14.12047304 18.25597507 14.12177016 16.33537985 14.12488318 C13.74253269 14.12884443 11.14976199 14.12676511 8.55691624 14.12304783 C7.79587482 14.12567484 7.0348334 14.12830186 6.25073013 14.13100848 C1.1141458 14.1141458 1.1141458 14.1141458 0 13 C-0.07258946 10.81360547 -0.08373783 8.62499611 -0.0625 6.4375 C-0.05347656 5.23996094 -0.04445313 4.04242188 -0.03515625 2.80859375 C-0.02355469 1.88175781 -0.01195312 0.95492188 0 0 Z " fill="#1400A6" transform="translate(294,347)"/>
<path d="M0 0 C0.91535096 0.00291284 1.83070191 0.00582568 2.77379078 0.00882679 C4.22064995 0.00754515 4.22064995 0.00754515 5.6967386 0.00623763 C8.95506132 0.00457989 12.21333346 0.01010898 15.47165149 0.01555592 C17.79689257 0.01583775 20.12213374 0.01568013 22.44737476 0.01511341 C28.781832 0.01482529 35.11627049 0.02072436 41.45072335 0.02768737 C47.39333475 0.03328789 53.3359454 0.03430919 59.27855908 0.03533924 C71.05223667 0.03753007 82.82590735 0.04419098 94.59958118 0.05364186 C106.03935947 0.06281519 117.47913589 0.06989641 128.91891712 0.07414967 C129.62358535 0.07441239 130.32825359 0.07467512 131.0542754 0.0749458 C134.58924557 0.0762508 138.12421575 0.07751452 141.65918595 0.0787577 C171.00414962 0.08913127 200.34910654 0.10682453 229.6940636 0.12908131 C229.6940636 4.41908131 229.6940636 8.70908131 229.6940636 13.12908131 C199.79049816 13.15187571 169.886933 13.16958158 139.98336075 13.18014664 C136.45593877 13.1813974 132.92851681 13.18269172 129.40109485 13.18401295 C128.34769008 13.18440642 128.34769008 13.18440642 127.2730044 13.18480783 C115.89003303 13.18916353 104.50706669 13.19705054 93.12409832 13.2062341 C81.45106077 13.21557341 69.77802617 13.22106262 58.10498506 13.2231698 C51.54550688 13.22447684 44.98604012 13.22756228 38.42656559 13.23481137 C32.25924551 13.24157218 26.09194162 13.24369814 19.92461818 13.24218899 C17.65497669 13.24246529 15.38533468 13.24447004 13.11569637 13.24828678 C10.02913781 13.25322497 6.94264127 13.2520791 3.85608143 13.24933583 C2.49326068 13.25370509 2.49326068 13.25370509 1.10290819 13.25816262 C-5.07769397 13.24320252 -5.07769397 13.24320252 -7.3059364 12.12908131 C-7.33280919 10.31666079 -7.35227355 8.50412897 -7.3684364 6.69158131 C-7.38003796 5.68224537 -7.39163952 4.67290943 -7.40359265 3.63298756 C-7.21170395 -1.28703856 -4.20983747 0.01017142 0 0 Z " fill="#0046AC" transform="translate(301.305936396122,362.8709186911583)"/>
<path d="M0 0 C0.99 0 1.98 0 3 0 C3 0.66 3 1.32 3 2 C80.22 2 157.44 2 237 2 C237 5.96 237 9.92 237 14 C206.95201866 14.02278999 176.90403761 14.04049798 146.85604954 14.05106533 C143.31231752 14.05231611 139.76858551 14.05361042 136.22485352 14.05493164 C135.51933074 14.05519395 134.81380796 14.05545626 134.08690571 14.05572652 C122.64829332 14.06008329 111.20968593 14.06797088 99.77107651 14.0771528 C88.04267329 14.08648914 76.3142727 14.09205557 64.58586591 14.09408849 C57.99456156 14.09539605 51.40326857 14.09848471 44.81196785 14.10573006 C38.61592375 14.11248614 32.41989577 14.11461781 26.22384834 14.11310768 C23.94249891 14.1133842 21.66114897 14.11539174 19.3798027 14.11920547 C16.27975732 14.1241363 13.17977381 14.12300056 10.07972717 14.12025452 C9.16437622 14.12316736 8.24902526 14.1260802 7.3059364 14.12908131 C1.11412121 14.11412121 1.11412121 14.11412121 0 13 C-0.07258946 10.81360547 -0.08373783 8.62499611 -0.0625 6.4375 C-0.05347656 5.23996094 -0.04445313 4.04242188 -0.03515625 2.80859375 C-0.02355469 1.88175781 -0.01195312 0.95492188 0 0 Z " fill="#0049AC" transform="translate(294,347)"/>
<path d="M0 0 C2 1 2 1 2 1 Z " fill="#00007F" transform="translate(292,348)"/>
<path d="" fill="#0000FF" transform="translate(0,0)"/>
<path d="" fill="#000080" transform="translate(0,0)"/>
<path d="" fill="#0000FF" transform="translate(0,0)"/>
<path d="" fill="#0000AA" transform="translate(0,0)"/>
<path d="" fill="#000080" transform="translate(0,0)"/>
<path d="" fill="#0000AA" transform="translate(0,0)"/>
<path d="" fill="#0000FF" transform="translate(0,0)"/>
<path d="" fill="#000000" transform="translate(0,0)"/>
<path d="" fill="#0000FF" transform="translate(0,0)"/>
<path d="" fill="#0000FF" transform="translate(0,0)"/>
<path d="" fill="#000080" transform="translate(0,0)"/>
<path d="" fill="#000000" transform="translate(0,0)"/>
<path d="" fill="#0000FF" transform="translate(0,0)"/>
<path d="" fill="#000000" transform="translate(0,0)"/>
<path d="" fill="#000000" transform="translate(0,0)"/>
<path d="" fill="#000080" transform="translate(0,0)"/>
<path d="" fill="#000080" transform="translate(0,0)"/>
<path d="" fill="#000000" transform="translate(0,0)"/>
<path d="" fill="#000000" transform="translate(0,0)"/>
<path d="" fill="#0000FF" transform="translate(0,0)"/>
<path d="" fill="#000080" transform="translate(0,0)"/>
<path d="" fill="#000080" transform="translate(0,0)"/>
<path d="" fill="#000055" transform="translate(0,0)"/>
<path d="" fill="#000000" transform="translate(0,0)"/>
<path d="" fill="#0000FF" transform="translate(0,0)"/>
<path d="" fill="#000000" transform="translate(0,0)"/>
<path d="" fill="#000080" transform="translate(0,0)"/>
<path d="" fill="#0000BF" transform="translate(0,0)"/>
</svg>
